<svg width="68" height="35" viewBox="0 0 68 35" fill="none" xmlns="http://www.w3.org/2000/svg">
<path d="M0 2.38696H54C61.732 2.38696 68 8.65498 68 16.387V31.387H0V2.38696Z" fill="#555555"/>
<path d="M26.75 22.387H25.476L20.352 14.617V22.387H19.078V12.615H20.352L25.476 20.371V12.615H26.75V22.387ZM30.1958 13.665V16.927H33.7518V17.977H30.1958V21.337H34.1718V22.387H28.9218V12.615H34.1718V13.665H30.1958ZM48.3635 12.629L45.5355 22.387H44.1075L41.8395 14.533L39.4875 22.387L38.0735 22.401L35.3435 12.629H36.7015L38.8295 20.903L41.1815 12.629H42.6095L44.8495 20.875L46.9915 12.629H48.3635Z" fill="white"/>
</svg>
